<!-- Generator: Adobe Illustrator 24.0.1, SVG Export Plug-In  -->
<svg version="1.1" xmlns="http://www.w3.org/2000/svg" xmlns:xlink="http://www.w3.org/1999/xlink" x="0px" y="0px"
	 width="288.04px" height="336.07px" viewBox="0 0 288.04 336.07" style="enable-background:new 0 0 288.04 336.07;"
	 xml:space="preserve">
<style type="text/css">
	.st0{fill:none;stroke:#fff;stroke-width:16;stroke-linecap:round;stroke-linejoin:round;stroke-miterlimit:10;}
</style>
<defs>
</defs>
<path class="st0" d="M169.52,315.93c-5.76,7.08-14.42,11.74-24.25,12.12c-10.73,0.41-20.46-4.38-26.75-12.12 M144.02,24.12
	c-62.18,0-112.6,50.41-112.6,112.6v91.79C31.43,276.26,8,296.47,8,296.47h136.02c0,0,136.02,0,136.02,0s-23.43-20.21-23.43-67.96
	v-91.79C256.62,74.53,206.21,24.12,144.02,24.12z M144.02,8c-3.83,0-6.94,3.11-6.94,6.94s3.11,6.94,6.94,6.94
	c3.83,0,6.94-3.11,6.94-6.94S147.85,8,144.02,8z"/>
</svg>
