<!-- Generator: Adobe Illustrator 24.0.1, SVG Export Plug-In  -->
<svg version="1.1" xmlns="http://www.w3.org/2000/svg" xmlns:xlink="http://www.w3.org/1999/xlink" x="0px" y="0px" width="72.77px"
	 height="294.55px" viewBox="0 0 72.77 294.55" style="enable-background:new 0 0 72.77 294.55;" xml:space="preserve">
<style type="text/css">
	.st0{fill:#FFFFFF;}
</style>
<defs>
</defs>
<path class="st0" d="M72.77,36.38c0,20.09-16.29,36.38-36.38,36.38S0,56.48,0,36.38S16.29,0,36.38,0S72.77,16.29,72.77,36.38z
	 M36.38,110.89C16.29,110.89,0,127.18,0,147.28s16.29,36.38,36.38,36.38s36.38-16.29,36.38-36.38S56.48,110.89,36.38,110.89z
	 M36.38,221.79C16.29,221.79,0,238.08,0,258.17c0,20.09,16.29,36.38,36.38,36.38s36.38-16.29,36.38-36.38
	C72.77,238.08,56.48,221.79,36.38,221.79z"/>
</svg>
