<!-- Generator: Adobe Illustrator 24.0.1, SVG Export Plug-In  -->
<svg version="1.1" xmlns="http://www.w3.org/2000/svg" xmlns:xlink="http://www.w3.org/1999/xlink" x="0px" y="0px"
	 width="335.33px" height="335.33px" viewBox="0 0 335.33 335.33" style="enable-background:new 0 0 335.33 335.33;"
	 xml:space="preserve">
<style type="text/css">
	.st0{fill:none;stroke:#fff;stroke-width:16;stroke-linejoin:round;stroke-miterlimit:10;}
</style>
<defs>
</defs>
<path class="st0" d="M327.33,167.67c0,88.18-71.49,159.67-159.67,159.67S8,255.85,8,167.67S79.49,8,167.67,8
	S327.33,79.49,327.33,167.67z M286.52,274.28c-21.16-28.68-43.62-35.83-63.37-35.83c-16.68,0-94.28,0-110.97,0
	c-19.74,0-42.21,7.15-63.37,35.83 M167.67,79.5c-35.35,0-64,28.65-64,64s28.65,64,64,64s64-28.65,64-64S203.01,79.5,167.67,79.5z"/>
</svg>
