<!-- Generator: Adobe Illustrator 24.0.1, SVG Export Plug-In  -->
<svg version="1.1" xmlns="http://www.w3.org/2000/svg" xmlns:xlink="http://www.w3.org/1999/xlink" x="0px" y="0px"
	 width="325.32px" height="325.32px" viewBox="0 0 325.32 325.32" style="enable-background:new 0 0 325.32 325.32;"
	 xml:space="preserve">
<style type="text/css">
	.st0{fill:none;stroke:#888;stroke-width:16;stroke-linecap:round;stroke-linejoin:round;stroke-miterlimit:10;}
	.st1{fill:#888}
</style>
<defs>
</defs>
<path class="st0" d="M232.55,317.32H92.77C45.95,317.32,8,279.37,8,232.55V92.77C8,45.95,45.95,8,92.77,8h139.79
	c46.81,0,84.77,37.95,84.77,84.77v139.79C317.32,279.37,279.37,317.32,232.55,317.32z M8,92.77h309.32 M81.3,8.77l50.84,83.99
	 M240.75,92.77L189.9,8.77"/>
<path class="st1" d="M129.28,258.13c2.61,0,4.98-0.91,6.82-2.42l73.51-43.38c4.87-3.36,6.11-10.04,2.75-14.91c-0.85-1.21-1.93-2.2-3.11-2.97
	l-73.81-48c-4.84-3.38-11.53-2.2-14.94,2.67c-1.29,1.87-1.93,4.02-1.93,6.13h-0.06v92.13C118.52,253.32,123.33,258.13,129.28,258.13
	z"/>
</svg>
