<!-- Generator: Adobe Illustrator 24.0.1, SVG Export Plug-In  -->
<!-- <svg version="1.1" xmlns="http://www.w3.org/2000/svg" xmlns:xlink="http://www.w3.org/1999/xlink" x="0px" y="0px" width="304px"
	 height="304px" viewBox="0 0 304 304" style="enable-background:new 0 0 304 304;" xml:space="preserve">
<style type="text/css">
	.st0{fill:#FFFFFF;}
</style>
<defs>
</defs>
<path class="st0" d="M0,211.53V52.47C0,23.54,23.54,0,52.47,0h159.06C240.46,0,264,23.54,264,52.47v159.06
	c0,28.93-23.54,52.47-52.47,52.47H52.47C23.54,264,0,240.46,0,211.53z M304,251.53c0,28.93-23.54,52.47-52.47,52.47H92.47
	c-18.33,0-34.77-9.29-44.22-24.13c1.39,0.08,2.8,0.13,4.22,0.13h159.06c37.75,0,68.47-30.71,68.47-68.47V52.47
	c0-1.42-0.04-2.82-0.13-4.22C294.71,57.7,304,74.14,304,92.47V251.53z"/>
</svg> -->

<!-- Generator: Adobe Illustrator 24.0.1, SVG Export Plug-In  -->
<svg version="1.1" xmlns="http://www.w3.org/2000/svg" xmlns:xlink="http://www.w3.org/1999/xlink" x="0px" y="0px" width="298.4px"
	 height="298.4px" viewBox="0 0 298.4 298.4" style="enable-background:new 0 0 298.4 298.4;" xml:space="preserve">
<style type="text/css">
	.st0{fill:#FFFFFF;}
</style>
<defs>
</defs>
<g>
	<path class="st0" d="M51,280c9.2,11.43,23.23,18.4,38.67,18.4h159.06c27.39,0,49.67-22.28,49.67-49.67V89.67
		c0-15.44-6.97-29.47-18.4-38.67v157.73c0,39.3-31.97,71.27-71.27,71.27H51z M49.67,0C22.28,0,0,22.28,0,49.67v159.06
		c0,27.39,22.28,49.67,49.67,49.67h159.06c27.39,0,49.67-22.28,49.67-49.67V49.67C258.4,22.28,236.12,0,208.73,0H49.67z"/>
</g>
</svg>
