<!-- Generator: Adobe Illustrator 24.0.1, SVG Export Plug-In  -->
<svg version="1.1" xmlns="http://www.w3.org/2000/svg" xmlns:xlink="http://www.w3.org/1999/xlink" x="0px" y="0px"
	 width="293.32px" height="293.32px" viewBox="0 0 293.32 293.32" style="enable-background:new 0 0 293.32 293.32;"
	 xml:space="preserve">
<style type="text/css">
	.st0{fill:#FFFFFF;}
</style>
<defs>
</defs>
<path class="st0" d="M120.65,68.77L79.02,0h89.9l41.63,68.77H120.65z M292.9,68.77C288.89,30.18,256.18,0,216.55,0h-28.92l41.63,68.77H292.9z
	 M61.27,1.57C28.89,8.23,3.89,35.35,0.41,68.77h101.53L61.27,1.57z M293.32,84.77v131.79c0,42.33-34.44,76.77-76.77,76.77H76.77
	C34.44,293.32,0,258.88,0,216.55V84.77h116.01c0.09,0,0.18,0,0.28,0h108.33c0.09,0,0.18,0,0.27,0H293.32z M196.36,181.42
	c-0.85-1.21-1.93-2.2-3.11-2.97l-73.81-48c-4.84-3.38-11.53-2.2-14.94,2.67c-1.29,1.87-1.93,4.02-1.93,6.13h-0.06v92.13
	c0,5.94,4.81,10.76,10.76,10.76c2.61,0,4.98-0.91,6.82-2.42l73.51-43.38C198.47,192.97,199.71,186.29,196.36,181.42z"/>
</svg>
