<!-- Generator: Adobe Illustrator 24.0.1, SVG Export Plug-In  -->
<svg version="1.1" xmlns="http://www.w3.org/2000/svg" xmlns:xlink="http://www.w3.org/1999/xlink" x="0px" y="0px" width="302.5px"
	 height="334.19px" viewBox="0 0 302.5 334.19" style="enable-background:new 0 0 302.5 334.19;" xml:space="preserve">
<style type="text/css">
	.st0{fill:none;stroke:#FFFFFF;stroke-width:16;stroke-linecap:round;stroke-linejoin:round;stroke-miterlimit:10;}
</style>
<defs>
</defs>
<path class="st0" d="M221.13,326.19H81.36c-41.4,0-74.6-34.23-73.33-75.61l8.73-142.06c1.11-18,16.03-32.03,34.06-32.03h200.83
	c18.04,0,32.96,14.03,34.06,32.03l8.73,142.06C295.73,291.96,262.53,326.19,221.13,326.19z M204.86,76.49V61.62
	C204.86,32.01,180.86,8,151.25,8S97.63,32.01,97.63,61.62v14.87 M100.91,137.77c0,27.8,22.54,50.34,50.34,50.34
	s50.34-22.54,50.34-50.34"/>
</svg>
