<!-- Generator: Adobe Illustrator 24.0.1, SVG Export Plug-In  -->
<svg version="1.1" xmlns="http://www.w3.org/2000/svg" xmlns:xlink="http://www.w3.org/1999/xlink" x="0px" y="0px"
	 width="334.68px" height="337.28px" viewBox="0 0 334.68 337.28" style="enable-background:new 0 0 334.68 337.28;"
	 xml:space="preserve">
<style type="text/css">
	.st0{fill:none;stroke:#888;stroke-width:16;stroke-linecap:round;stroke-linejoin:round;stroke-miterlimit:10;}
</style>
<defs>
</defs>
<path class="st0" d="M40.62,325.57c0-36.89,36.83-69.21,71.24-69.21c8.34,0,102.63,0,110.97,0c34.41,0,71.24,32.32,71.24,69.21
	 M167.34,97.41c-35.35,0-64,28.65-64,64s28.65,64,64,64s64-28.65,64-64S202.69,97.41,167.34,97.41z M295.64,49.06H200.5L167.34,8
	c0,0-22,27.24-33.16,41.06H39.04C21.9,49.06,8,62.96,8,80.11v218.13c0,17.14,13.9,31.04,31.04,31.04h256.6
	c17.14,0,31.04-13.9,31.04-31.04V80.11C326.68,62.96,312.78,49.06,295.64,49.06z"/>
</svg>
